<svg width="23" height="21" viewBox="0 0 23 21" fill="none" xmlns="http://www.w3.org/2000/svg">
<path d="M11.445 19.2417C9.60506 18.1475 7.87576 16.8769 6.28156 15.4477C2.65353 12.1824 1.00011 9.09103 1 6.26265L11.445 19.2417ZM11.445 19.2417C13.285 18.1475 15.0143 16.8768 16.6086 15.4476C20.2365 12.1823 21.8899 9.091 21.89 6.26265L11.445 19.2417ZM20.8596 3.13573C21.5285 4.04098 21.8896 5.13679 21.89 6.26236H1C1.00038 5.13679 1.36153 4.04098 2.03044 3.13573C2.69941 2.23041 3.64097 1.56337 4.71692 1.23252C5.79287 0.901661 6.94654 0.924417 8.0086 1.29744C9.07067 1.67047 9.98519 2.37412 10.6179 3.30512L11.445 4.52202L12.2721 3.30512C12.9048 2.37412 13.8193 1.67047 14.8814 1.29744C15.9435 0.924417 17.0971 0.901661 18.1731 1.23252C19.249 1.56337 20.1906 2.23041 20.8596 3.13573Z" stroke="#44C4B4" stroke-width="2"/>
</svg>
